# xmcd
# Track frame offsets:
# 150
# 10500
# 26025
# 41175
# 56850
# 73200
# 92025
# 106949
# 124124
#
# Disc length: 1901 seconds
# Revision: 0
# Processed by: cddbd v1.5.1PL0 Copyright (c) Steve Scherf et al.
# Submitted via: VisiTrax 2.9.10.228 - For more info visit www.synapsa.com
#
DISCID=79076b09
DTITLE=Various Artist - Hits Monthly Nashville   PHN0101
DYEAR=1900
DGENRE=Karaoke
TTITLE0=Strait, George - Don't Make Me Come Over There
TTITLE1=Loveless, Patty - Last Thing On My Mind, The
TTITLE2=Brooks, Garth - Wild Horses
TTITLE3=McBride, Martina - It's My Time
TTITLE4=Raye, Collin - She's All That
TTITLE5=Evans, Sara - I Could Not Ask For More
TTITLE6=Alabama - When It All Goes South
TTITLE7=Andrews, Jessica - Who I Am
TTITLE8=Holy, Steve - Hunger, The
EXTD=
EXTT0=
EXTT1=
EXTT2=
EXTT3=
EXTT4=
EXTT5=
EXTT6=
EXTT7=
EXTT8=
PLAYORDER=
